<svg viewBox="0 0 400 260" fill="none" xmlns="http://www.w3.org/2000/svg">
  <rect width="400" height="260" fill="#F7F5F0"/>
  <rect x="12" y="12" width="376" height="236" stroke="#1C1C1C" stroke-width="0.5" opacity="0.12" fill="none"/>
  <rect x="16" y="16" width="368" height="228" stroke="#B8976A" stroke-width="0.3" opacity="0.25" fill="none"/>

  <!-- Base plate -->
  <rect x="50" y="52" width="300" height="166" stroke="#1C1C1C" stroke-width="1.3" fill="rgba(184,151,106,0.04)"/>

  <!-- T-slot grid -->
  <line x1="150" y1="52" x2="150" y2="218" stroke="#1C1C1C" stroke-width="0.4" stroke-dasharray="3,4" opacity="0.18"/>
  <line x1="250" y1="52" x2="250" y2="218" stroke="#1C1C1C" stroke-width="0.4" stroke-dasharray="3,4" opacity="0.18"/>
  <line x1="50" y1="135" x2="350" y2="135" stroke="#1C1C1C" stroke-width="0.4" stroke-dasharray="3,4" opacity="0.18"/>

  <!-- Workpiece -->
  <rect x="128" y="78" width="144" height="114" stroke="#B8976A" stroke-width="1.8" fill="rgba(184,151,106,0.07)"/>

  <!-- Inner bore / feature -->
  <circle cx="200" cy="135" r="28" stroke="#1C1C1C" stroke-width="0.8" fill="none" opacity="0.5"/>
  <circle cx="200" cy="135" r="10" stroke="#1C1C1C" stroke-width="0.5" stroke-dasharray="3,2" fill="none" opacity="0.35"/>
  <circle cx="200" cy="135" r="3" fill="#B8976A" opacity="0.5"/>

  <!-- Alignment pins -->
  <circle cx="128" cy="78" r="7" stroke="#B8976A" stroke-width="1" fill="#F7F5F0"/>
  <circle cx="128" cy="78" r="3" fill="#B8976A" opacity="0.65"/>
  <circle cx="272" cy="78" r="7" stroke="#B8976A" stroke-width="1" fill="#F7F5F0"/>
  <circle cx="272" cy="78" r="3" fill="#B8976A" opacity="0.65"/>
  <circle cx="128" cy="192" r="7" stroke="#B8976A" stroke-width="1" fill="#F7F5F0"/>
  <circle cx="128" cy="192" r="3" fill="#B8976A" opacity="0.65"/>
  <circle cx="272" cy="192" r="7" stroke="#B8976A" stroke-width="1" fill="#F7F5F0"/>
  <circle cx="272" cy="192" r="3" fill="#B8976A" opacity="0.65"/>

  <!-- Clamp left -->
  <rect x="56" y="118" width="62" height="34" stroke="#1C1C1C" stroke-width="1" fill="rgba(28,28,28,0.04)"/>
  <rect x="64" y="124" width="46" height="22" stroke="#1C1C1C" stroke-width="0.5" fill="none" opacity="0.3"/>
  <circle cx="78" cy="135" r="6" stroke="#1C1C1C" stroke-width="0.8" fill="#F7F5F0"/>
  <line x1="56" y1="135" x2="68" y2="135" stroke="#1C1C1C" stroke-width="1.8" opacity="0.5"/>

  <!-- Clamp right -->
  <rect x="282" y="118" width="62" height="34" stroke="#1C1C1C" stroke-width="1" fill="rgba(28,28,28,0.04)"/>
  <rect x="290" y="124" width="46" height="22" stroke="#1C1C1C" stroke-width="0.5" fill="none" opacity="0.3"/>
  <circle cx="322" cy="135" r="6" stroke="#1C1C1C" stroke-width="0.8" fill="#F7F5F0"/>
  <line x1="332" y1="135" x2="344" y2="135" stroke="#1C1C1C" stroke-width="1.8" opacity="0.5"/>

  <!-- Center crosshair -->
  <line x1="200" y1="78" x2="200" y2="192" stroke="#1C1C1C" stroke-width="0.4" stroke-dasharray="2,3" opacity="0.28"/>
  <line x1="128" y1="135" x2="272" y2="135" stroke="#1C1C1C" stroke-width="0.4" stroke-dasharray="2,3" opacity="0.28"/>

  <!-- Dimension top -->
  <line x1="128" y1="36" x2="272" y2="36" stroke="#B8976A" stroke-width="0.8"/>
  <line x1="128" y1="31" x2="128" y2="41" stroke="#B8976A" stroke-width="0.8"/>
  <line x1="272" y1="31" x2="272" y2="41" stroke="#B8976A" stroke-width="0.8"/>
  <text x="200" y="30" text-anchor="middle" font-family="DM Sans,sans-serif" font-size="9" fill="#B8976A" letter-spacing="1.5">144.0mm</text>

  <!-- Dimension left -->
  <line x1="24" y1="78" x2="24" y2="192" stroke="#B8976A" stroke-width="0.8"/>
  <line x1="19" y1="78" x2="29" y2="78" stroke="#B8976A" stroke-width="0.8"/>
  <line x1="19" y1="192" x2="29" y2="192" stroke="#B8976A" stroke-width="0.8"/>
  <text x="12" y="138" text-anchor="middle" font-family="DM Sans,sans-serif" font-size="9" fill="#B8976A" transform="rotate(-90,12,138)" letter-spacing="1">114.0mm</text>

  <!-- Title block -->
  <line x1="12" y1="228" x2="388" y2="228" stroke="#1C1C1C" stroke-width="0.4" opacity="0.18"/>
  <text x="200" y="246" text-anchor="middle" font-family="DM Sans,sans-serif" font-size="7.5" fill="#7A7772" letter-spacing="2.5" opacity="0.9">JIG ASSEMBLY — PLAN VIEW</text>
</svg>
