<svg viewBox="0 0 800 400" fill="none" xmlns="http://www.w3.org/2000/svg">
  <rect width="800" height="400" fill="#F7F5F0"/>

  <!-- Desk grid (subtle) -->
  <line x1="0" y1="100" x2="800" y2="100" stroke="#1C1C1C" stroke-width="0.3" opacity="0.05"/>
  <line x1="0" y1="200" x2="800" y2="200" stroke="#1C1C1C" stroke-width="0.3" opacity="0.05"/>
  <line x1="0" y1="300" x2="800" y2="300" stroke="#1C1C1C" stroke-width="0.3" opacity="0.05"/>
  <line x1="200" y1="0" x2="200" y2="400" stroke="#1C1C1C" stroke-width="0.3" opacity="0.05"/>
  <line x1="400" y1="0" x2="400" y2="400" stroke="#1C1C1C" stroke-width="0.3" opacity="0.05"/>
  <line x1="600" y1="0" x2="600" y2="400" stroke="#1C1C1C" stroke-width="0.3" opacity="0.05"/>

  <!-- A3 drawing sheet -->
  <rect x="24" y="28" width="390" height="274" stroke="#1C1C1C" stroke-width="1" fill="rgba(255,255,255,0.55)"/>
  <rect x="34" y="38" width="370" height="254" stroke="#1C1C1C" stroke-width="0.45" fill="none" opacity="0.4"/>

  <!-- Technical drawing on paper — mechanical bracket -->
  <!-- Front view -->
  <rect x="68" y="68" width="140" height="110" stroke="#1C1C1C" stroke-width="0.9" fill="none" opacity="0.7"/>
  <rect x="82" y="82" width="112" height="82" stroke="#1C1C1C" stroke-width="0.45" stroke-dasharray="3,2" fill="none" opacity="0.32"/>
  <!-- Holes -->
  <circle cx="94" cy="94" r="9" stroke="#1C1C1C" stroke-width="0.65" fill="none" opacity="0.55"/>
  <circle cx="94" cy="94" r="4" stroke="#1C1C1C" stroke-width="0.4" stroke-dasharray="2,2" fill="none" opacity="0.3"/>
  <circle cx="194" cy="94" r="9" stroke="#1C1C1C" stroke-width="0.65" fill="none" opacity="0.55"/>
  <circle cx="194" cy="94" r="4" stroke="#1C1C1C" stroke-width="0.4" stroke-dasharray="2,2" fill="none" opacity="0.3"/>
  <circle cx="94" cy="158" r="9" stroke="#1C1C1C" stroke-width="0.65" fill="none" opacity="0.55"/>
  <circle cx="194" cy="158" r="9" stroke="#1C1C1C" stroke-width="0.65" fill="none" opacity="0.55"/>
  <!-- Center lines -->
  <line x1="138" y1="60" x2="138" y2="74" stroke="#1C1C1C" stroke-width="0.4" stroke-dasharray="3,1" opacity="0.45"/>
  <line x1="132" y1="123" x2="144" y2="123" stroke="#1C1C1C" stroke-width="0.4" stroke-dasharray="3,1" opacity="0.45"/>
  <line x1="138" y1="117" x2="138" y2="129" stroke="#1C1C1C" stroke-width="0.4" stroke-dasharray="3,1" opacity="0.45"/>

  <!-- Side view -->
  <rect x="232" y="68" width="66" height="110" stroke="#1C1C1C" stroke-width="0.9" fill="none" opacity="0.7"/>
  <line x1="232" y1="80" x2="244" y2="68" stroke="#1C1C1C" stroke-width="0.4" opacity="0.18"/>
  <line x1="232" y1="94" x2="258" y2="68" stroke="#1C1C1C" stroke-width="0.4" opacity="0.18"/>
  <line x1="232" y1="108" x2="272" y2="68" stroke="#1C1C1C" stroke-width="0.4" opacity="0.18"/>
  <line x1="232" y1="122" x2="286" y2="68" stroke="#1C1C1C" stroke-width="0.4" opacity="0.18"/>
  <line x1="232" y1="136" x2="298" y2="70" stroke="#1C1C1C" stroke-width="0.4" opacity="0.18"/>
  <line x1="232" y1="150" x2="298" y2="84" stroke="#1C1C1C" stroke-width="0.4" opacity="0.18"/>
  <line x1="232" y1="164" x2="298" y2="98" stroke="#1C1C1C" stroke-width="0.4" opacity="0.18"/>
  <line x1="238" y1="178" x2="298" y2="118" stroke="#1C1C1C" stroke-width="0.4" opacity="0.18"/>
  <line x1="252" y1="178" x2="298" y2="132" stroke="#1C1C1C" stroke-width="0.4" opacity="0.18"/>
  <line x1="266" y1="178" x2="298" y2="146" stroke="#1C1C1C" stroke-width="0.4" opacity="0.18"/>
  <line x1="280" y1="178" x2="298" y2="160" stroke="#1C1C1C" stroke-width="0.4" opacity="0.18"/>
  <line x1="294" y1="178" x2="298" y2="174" stroke="#1C1C1C" stroke-width="0.4" opacity="0.18"/>

  <!-- Dimensions (gold) -->
  <line x1="68" y1="54" x2="208" y2="54" stroke="#B8976A" stroke-width="0.75" opacity="0.9"/>
  <line x1="68" y1="49" x2="68" y2="59" stroke="#B8976A" stroke-width="0.75" opacity="0.9"/>
  <line x1="208" y1="49" x2="208" y2="59" stroke="#B8976A" stroke-width="0.75" opacity="0.9"/>
  <text x="138" y="49" text-anchor="middle" font-family="DM Sans,sans-serif" font-size="8.5" fill="#B8976A" opacity="0.95">140mm</text>

  <line x1="46" y1="68" x2="46" y2="178" stroke="#B8976A" stroke-width="0.75" opacity="0.9"/>
  <line x1="41" y1="68" x2="51" y2="68" stroke="#B8976A" stroke-width="0.75" opacity="0.9"/>
  <line x1="41" y1="178" x2="51" y2="178" stroke="#B8976A" stroke-width="0.75" opacity="0.9"/>
  <text x="34" y="126" text-anchor="middle" font-family="DM Sans,sans-serif" font-size="8.5" fill="#B8976A" opacity="0.95" transform="rotate(-90,34,126)">110mm</text>

  <!-- Title block -->
  <rect x="34" y="258" width="370" height="34" stroke="#1C1C1C" stroke-width="0.4" fill="rgba(28,28,28,0.02)" opacity="0.55"/>
  <line x1="210" y1="258" x2="210" y2="292" stroke="#1C1C1C" stroke-width="0.4" opacity="0.3"/>
  <line x1="34" y1="272" x2="404" y2="272" stroke="#1C1C1C" stroke-width="0.4" opacity="0.2"/>
  <text x="122" y="268" text-anchor="middle" font-family="DM Sans,sans-serif" font-size="7" fill="#1C1C1C" opacity="0.38">DESIGN LOVER — 個人設計事務所</text>
  <text x="307" y="268" text-anchor="middle" font-family="DM Sans,sans-serif" font-size="7" fill="#B8976A" opacity="0.7">DL-2024-BKT-002</text>
  <text x="122" y="283" text-anchor="middle" font-family="DM Sans,sans-serif" font-size="6.5" fill="#1C1C1C" opacity="0.28">MOUNTING BRACKET — ASSY</text>
  <text x="307" y="283" text-anchor="middle" font-family="DM Sans,sans-serif" font-size="6.5" fill="#1C1C1C" opacity="0.28">SCALE 1:1 / A3</text>

  <!-- Steel rule -->
  <rect x="430" y="26" width="344" height="12" stroke="#1C1C1C" stroke-width="0.65" fill="rgba(255,255,255,0.6)"/>
  <line x1="450" y1="26" x2="450" y2="33" stroke="#1C1C1C" stroke-width="0.35" opacity="0.4"/>
  <line x1="470" y1="26" x2="470" y2="35" stroke="#1C1C1C" stroke-width="0.55" opacity="0.4"/>
  <text x="470" y="43" text-anchor="middle" font-family="DM Sans,sans-serif" font-size="6" fill="#1C1C1C" opacity="0.35">20</text>
  <line x1="490" y1="26" x2="490" y2="33" stroke="#1C1C1C" stroke-width="0.35" opacity="0.4"/>
  <line x1="510" y1="26" x2="510" y2="33" stroke="#1C1C1C" stroke-width="0.35" opacity="0.4"/>
  <line x1="530" y1="26" x2="530" y2="35" stroke="#1C1C1C" stroke-width="0.55" opacity="0.4"/>
  <text x="530" y="43" text-anchor="middle" font-family="DM Sans,sans-serif" font-size="6" fill="#1C1C1C" opacity="0.35">50</text>
  <line x1="550" y1="26" x2="550" y2="33" stroke="#1C1C1C" stroke-width="0.35" opacity="0.4"/>
  <line x1="570" y1="26" x2="570" y2="33" stroke="#1C1C1C" stroke-width="0.35" opacity="0.4"/>
  <line x1="590" y1="26" x2="590" y2="35" stroke="#1C1C1C" stroke-width="0.55" opacity="0.4"/>
  <line x1="610" y1="26" x2="610" y2="33" stroke="#1C1C1C" stroke-width="0.35" opacity="0.4"/>
  <line x1="630" y1="26" x2="630" y2="33" stroke="#1C1C1C" stroke-width="0.35" opacity="0.4"/>
  <line x1="650" y1="26" x2="650" y2="35" stroke="#1C1C1C" stroke-width="0.55" opacity="0.4"/>
  <line x1="670" y1="26" x2="670" y2="33" stroke="#1C1C1C" stroke-width="0.35" opacity="0.4"/>
  <line x1="690" y1="26" x2="690" y2="33" stroke="#1C1C1C" stroke-width="0.35" opacity="0.4"/>
  <line x1="710" y1="26" x2="710" y2="35" stroke="#1C1C1C" stroke-width="0.55" opacity="0.4"/>
  <line x1="750" y1="26" x2="750" y2="35" stroke="#1C1C1C" stroke-width="0.55" opacity="0.4"/>

  <!-- Laptop -->
  <rect x="432" y="52" width="310" height="210" rx="6" stroke="#1C1C1C" stroke-width="1.2" fill="rgba(28,28,28,0.04)"/>
  <!-- Screen -->
  <rect x="446" y="63" width="282" height="170" rx="2" fill="rgba(28,28,28,0.06)" stroke="#1C1C1C" stroke-width="0.5" opacity="0.5"/>
  <!-- CAD software UI -->
  <!-- Toolbar row -->
  <rect x="446" y="63" width="282" height="11" fill="rgba(28,28,28,0.06)"/>
  <circle cx="456" cy="68" r="2.5" fill="#1C1C1C" opacity="0.16"/>
  <circle cx="465" cy="68" r="2.5" fill="#1C1C1C" opacity="0.16"/>
  <circle cx="474" cy="68" r="2.5" fill="#1C1C1C" opacity="0.16"/>
  <!-- Feature tree panel -->
  <rect x="446" y="74" width="44" height="159" fill="rgba(28,28,28,0.04)"/>
  <line x1="446" y1="83" x2="490" y2="83" stroke="#1C1C1C" stroke-width="0.3" opacity="0.18"/>
  <line x1="446" y1="92" x2="490" y2="92" stroke="#1C1C1C" stroke-width="0.3" opacity="0.18"/>
  <line x1="446" y1="101" x2="490" y2="101" stroke="#1C1C1C" stroke-width="0.3" opacity="0.18"/>
  <line x1="446" y1="110" x2="490" y2="110" stroke="#1C1C1C" stroke-width="0.3" opacity="0.18"/>
  <!-- 3D viewport -->
  <rect x="494" y="74" width="234" height="159" fill="rgba(184,151,106,0.025)"/>
  <!-- Isometric part on screen -->
  <polygon points="580,100 640,88 700,100 700,148 640,160 580,148" stroke="#B8976A" stroke-width="0.9" fill="rgba(184,151,106,0.06)" opacity="0.85"/>
  <line x1="580" y1="100" x2="580" y2="148" stroke="#B8976A" stroke-width="0.9" opacity="0.6"/>
  <line x1="640" y1="88" x2="640" y2="136" stroke="#1C1C1C" stroke-width="0.55" opacity="0.28"/>
  <polygon points="580,100 640,88 700,100 640,112" stroke="#1C1C1C" stroke-width="0.55" fill="rgba(28,28,28,0.05)" opacity="0.6"/>
  <!-- Feature detail on part -->
  <circle cx="620" cy="124" r="12" stroke="#B8976A" stroke-width="0.6" fill="none" opacity="0.5"/>
  <circle cx="620" cy="124" r="5" stroke="#B8976A" stroke-width="0.5" fill="none" opacity="0.35"/>
  <!-- Axis indicator -->
  <line x1="504" y1="220" x2="520" y2="220" stroke="#B8976A" stroke-width="0.8" opacity="0.55"/>
  <line x1="504" y1="220" x2="504" y2="204" stroke="#1C1C1C" stroke-width="0.8" opacity="0.35"/>
  <line x1="504" y1="220" x2="496" y2="228" stroke="#1C1C1C" stroke-width="0.8" opacity="0.25"/>
  <text x="524" y="222" font-family="DM Sans,sans-serif" font-size="8" fill="#B8976A" opacity="0.6">X</text>
  <text x="505" y="200" font-family="DM Sans,sans-serif" font-size="8" fill="#1C1C1C" opacity="0.35">Y</text>
  <!-- Grid floor -->
  <line x1="494" y1="218" x2="728" y2="218" stroke="#1C1C1C" stroke-width="0.3" opacity="0.12"/>

  <!-- Pencil (lying diagonally) -->
  <rect x="424" y="278" width="7" height="92" rx="2" stroke="#1C1C1C" stroke-width="0.6" fill="rgba(184,151,106,0.22)" transform="rotate(-12,424,278)"/>
  <polygon points="422,366 427,378 432,366" fill="#1C1C1C" opacity="0.28" transform="rotate(-12,427,372)"/>

  <!-- Caliper -->
  <rect x="432" y="300" width="330" height="16" rx="1" stroke="#1C1C1C" stroke-width="0.7" fill="rgba(255,255,255,0.55)"/>
  <rect x="432" y="286" width="16" height="44" rx="1" stroke="#1C1C1C" stroke-width="0.7" fill="rgba(255,255,255,0.55)"/>
  <rect x="600" y="293" width="12" height="30" rx="1" stroke="#1C1C1C" stroke-width="0.7" fill="rgba(255,255,255,0.55)"/>
  <rect x="603" y="300" width="8" height="10" fill="rgba(184,151,106,0.25)"/>
  <line x1="452" y1="300" x2="452" y2="308" stroke="#1C1C1C" stroke-width="0.35" opacity="0.35"/>
  <line x1="472" y1="300" x2="472" y2="308" stroke="#1C1C1C" stroke-width="0.35" opacity="0.35"/>
  <line x1="492" y1="300" x2="492" y2="308" stroke="#1C1C1C" stroke-width="0.35" opacity="0.35"/>
  <line x1="512" y1="300" x2="512" y2="308" stroke="#1C1C1C" stroke-width="0.35" opacity="0.35"/>
  <line x1="532" y1="300" x2="532" y2="308" stroke="#1C1C1C" stroke-width="0.35" opacity="0.35"/>
  <line x1="552" y1="300" x2="552" y2="308" stroke="#1C1C1C" stroke-width="0.35" opacity="0.35"/>
  <line x1="572" y1="300" x2="572" y2="308" stroke="#1C1C1C" stroke-width="0.35" opacity="0.35"/>

  <!-- Dimension on caliper -->
  <line x1="450" y1="346" x2="600" y2="346" stroke="#B8976A" stroke-width="0.65" opacity="0.6"/>
  <line x1="450" y1="341" x2="450" y2="351" stroke="#B8976A" stroke-width="0.65" opacity="0.6"/>
  <line x1="600" y1="341" x2="600" y2="351" stroke="#B8976A" stroke-width="0.65" opacity="0.6"/>
  <text x="525" y="341" text-anchor="middle" font-family="DM Sans,sans-serif" font-size="8" fill="#B8976A" opacity="0.75">168.5mm</text>

  <!-- Sticky note with sketch -->
  <rect x="432" y="362" width="72" height="30" stroke="#1C1C1C" stroke-width="0.5" fill="rgba(184,151,106,0.1)" opacity="0.85"/>
  <circle cx="460" cy="374" r="8" stroke="#1C1C1C" stroke-width="0.55" fill="none" opacity="0.5"/>
  <line x1="454" y1="374" x2="466" y2="374" stroke="#1C1C1C" stroke-width="0.4" opacity="0.4"/>
  <line x1="460" y1="368" x2="460" y2="380" stroke="#1C1C1C" stroke-width="0.4" opacity="0.4"/>
  <text x="490" y="371" font-family="DM Sans,sans-serif" font-size="7" fill="#1C1C1C" opacity="0.42">φ16</text>
  <text x="490" y="383" font-family="DM Sans,sans-serif" font-size="7" fill="#B8976A" opacity="0.65">H7/p6</text>
</svg>
